<?xml version="1.0" encoding="utf-8"?>
<!-- Generator: Adobe Illustrator 19.2.1, SVG Export Plug-In . SVG Version: 6.00 Build 0)  -->
<svg version="1.1" id="layer" xmlns="http://www.w3.org/2000/svg" xmlns:xlink="http://www.w3.org/1999/xlink" x="0px" y="0px"
	 viewBox="0 0 652 652" style="enable-background:new 0 0 652 652;" xml:space="preserve">
<style type="text/css">
	.st0{fill:#004097;}
	.st1{fill:#E50012;}
	.st2{fill:#FFFFFF;}
	.st3{clip-path:url(#SVGID_2_);fill:url(#SVGID_3_);}
	.st4{fill:#00B5CF;}
	.st5{clip-path:url(#SVGID_5_);fill:url(#SVGID_6_);}
	.st6{clip-path:url(#SVGID_8_);fill:url(#SVGID_9_);}
</style>
<g>
	<path class="st0" d="M101.9,412.7c-13.2-2.4-26.5-4.2-39.8-5.2c-8-0.6-8.1,11.9-0.1,12.5c12.3,0.9,24.5,2.5,36.6,4.8
		C106.5,426.2,109.8,414.1,101.9,412.7"/>
	<path class="st1" d="M140,414.8c12.1-9.2,23.4-19.2,34-30.1c5.5-5.7-2.3-15.5-7.9-9.7c-10.6,10.9-21.9,21-34,30.1
		C125.6,410,133.6,419.7,140,414.8"/>
	<path class="st2" d="M127,456.9c-1.1,0-2.2-0.2-3.2-0.7c-2.4-1-3.9-3.1-4.2-5.7c-2.1-18.9-8.2-37.1-18-54c-1.2-2.1-1.3-4.4-0.1-6.4
		c1.3-2.2,3.8-3.7,6.3-3.7h0c2.3,0,4.2,1.2,5.4,3.3c10.8,18.5,17.5,38.9,19.9,60.7c0.2,2.2-0.5,4.1-2.1,5.3
		C129.9,456.5,128.4,456.9,127,456.9"/>
	<path class="st0" d="M127,456.9c-1.1,0-2.2-0.2-3.2-0.7c-2.4-1-3.9-3.1-4.2-5.7c-2.1-18.9-8.2-37.1-18-54c-1.2-2.1-1.3-4.4-0.2-6.4
		c1.3-2.2,3.8-3.7,6.3-3.7h0c2.3,0,4.2,1.2,5.4,3.3c10.8,18.5,17.5,38.9,19.9,60.7c0.2,2.2-0.5,4.1-2.1,5.3
		C129.9,456.5,128.4,456.9,127,456.9 M107.7,387.4L107.7,387.4c-2.2,0-4.4,1.3-5.5,3.2c-1,1.7-0.9,3.6,0.1,5.4
		c9.9,17.1,16,35.4,18.2,54.4c0.3,3.1,2.4,4.4,3.7,5c2.1,0.9,4.6,0.8,6.2-0.4c1.3-1,1.9-2.5,1.7-4.4c-2.4-21.7-9-42-19.7-60.3
		C111.3,388.4,109.6,387.4,107.7,387.4"/>
</g>
<g>
	<defs>
		<path id="SVGID_1_" d="M130.6,344.1c0,0.3-1.3,7.7-14,11.6c-13.5,4.1-24-3.6-24.5-4c-1.9-1.5-4.7-1.1-6.2,0.8
			c-1.5,1.9-1.1,4.7,0.8,6.2c0.5,0.4,9.3,7,21.9,7c3.3,0,6.8-0.4,10.6-1.6c18.6-5.7,20.1-18.5,20.2-19c0.3-2.4-1.5-4.5-3.8-4.8
			c-0.2,0-0.4,0-0.6,0C132.8,340.3,130.9,342,130.6,344.1 M73.3,298.3c-5,1-8.3,5.9-7.3,10.9c1,5,5.9,8.3,10.9,7.3
			c5-1,8.3-5.9,7.3-10.9c-0.9-4.4-4.8-7.4-9.1-7.4C74.5,298.1,73.9,298.2,73.3,298.3 M130.3,286.9c-5,1-8.3,5.9-7.3,10.9
			c1,5,5.9,8.3,10.9,7.3c5-1,8.3-5.9,7.3-10.9c-0.9-4.4-4.7-7.4-9.1-7.4C131.5,286.7,130.9,286.8,130.3,286.9 M55.4,363.7
			c-18.3-14.7-27.1-30.6-26.2-47.4c0.8-14.9,8.7-28.9,18.3-40.6c54.9-18.3,81.6-13.8,94.4-12.4c2.2,2.2,4.1,4.4,5.7,6.3
			c15,17.9,24.5,41.4,22.1,54.6c-1.6,9-7.9,24.3-20.3,38c-9.1,10-24.2,22-44.8,22C88.9,384.2,72.4,377.3,55.4,363.7 M125.9,208.2
			c6.2-9,0.2-18.4,0.2-18.4c-6.7,20.9-54.5,30.3-72.6,45.6c-18.1,15.3-19.3,44.9-19.3,44.9c0.1,0,0.3-0.1,0.4-0.1
			c-16.6,25-23.4,57.9,16,89.5c19.9,16,38,22.2,53.9,22.2c41.8,0,68.5-43.1,72.6-66.3c2.9-16.1-7.8-42.9-25.9-63.4
			c0.2-0.2,0.4-0.5,0.5-0.7c5.1-9,6.8-19.1,6.5-34.7c-0.2-15.6-18.3-40.2-18.3-40.2C140.7,208.3,125.9,208.2,125.9,208.2"/>
	</defs>
	<clipPath id="SVGID_2_">
		<use xlink:href="#SVGID_1_"  style="overflow:visible;"/>
	</clipPath>
	
		<linearGradient id="SVGID_3_" gradientUnits="userSpaceOnUse" x1="27.9788" y1="746.8014" x2="32.2835" y2="746.8014" gradientTransform="matrix(36.2704 0 0 -36.2704 -993.3063 27376.0254)">
		<stop  offset="0" style="stop-color:#45328F"/>
		<stop  offset="1" style="stop-color:#E50213"/>
	</linearGradient>
	<rect x="11.3" y="186.5" class="st3" width="168.8" height="205.3"/>
</g>
<g>
	<path class="st4" d="M195.2,407.6c0-14.9,10.2-21.4,22.1-21.4c13.5,0,19.3,6.8,18.8,19.6h-24.3v3.4c0,10.2,1.8,17.1,10.2,17.1
		c6.4,0,10.7-4.1,12.6-10.7l1.5,0.3c-2,7.4-6.5,13.1-18.7,13.1C202.1,428.9,195.2,420.1,195.2,407.6 M210.9,380.9l0.9,0.6l11.5-9.6
		c1.8-1.6,2.5-3,2.5-4.6c0-2.2-1.6-4.7-5.5-3.8l-4,0.9L210.9,380.9z M220.7,404.1v-4.2c0-9-0.7-12.1-4.2-12.1c-3,0-4.7,2.9-4.7,12.1
		v4.2H220.7z"/>
	<path class="st4" d="M267.5,422c-1.8,4.3-5.2,6.9-11.9,6.9c-9.6,0-15.6-6.8-15.6-21.3c0-14.5,6-21.4,17.1-21.4
		c5.3,0,8.4,1.5,10,4.2V365h-5.3v-1.5h21.5v63h4.2v1.5h-19.1L267.5,422z M267.3,416.3v-18.8c0-4.6-1.8-8.9-5.6-8.9
		c-4.2,0-5.1,5.1-5.1,17.1v4.5c0,12.1,1,15,4.7,15C263.9,425.2,267.3,422.8,267.3,416.3"/>
	<path class="st4" d="M320.1,428l-0.9-6.3c-1.6,4-4.4,7.1-12.1,7.1c-8,0-13.3-4-13.3-14.4v-25.9h-4.8V387h20.8v29.5
		c0,7.3,1,8.4,3.2,8.4c3.4,0,6.1-3.5,6.1-10.1v-26.4h-4V387h20v39.4h4.7v1.5H320.1z"/>
	<path class="st4" d="M358.5,405.5v4.5c0,11,2,15.9,8.7,15.9c7.8,0,11.2-6.6,12.1-11.3l1.5,0.2c-1.1,5.3-4,14-18.3,14
		c-13.3,0-20.7-7.4-20.7-20.8c0-14.5,8.8-21.9,23-21.9c10.5,0,15.8,4.5,15.8,10.9c0,5.3-2.8,8.1-7.2,8.1c-4.5,0-7.7-2.3-7.7-7.1
		c0-0.8,0.1-1.9,0.4-3.1h2.8c0.4-1.2,0.6-2.2,0.6-3.1c0-2.9-1.7-4.1-4.1-4.1C360.6,387.7,358.5,392.7,358.5,405.5"/>
	<path class="st4" d="M406.2,407.8v-6.6c0-10.9-0.9-13.8-4.4-13.8c-1.5,0-4,0.7-4,3.4c0,0.7,0.2,1.5,0.5,2.5h2.2
		c0.4,1.1,0.7,2.2,0.7,3.9c0,4.1-3.3,6.7-7.6,6.7c-5.3,0-7.4-2.9-7.4-7.2c0-7.2,6.3-10.6,18-10.6c13.5,0,18.1,3.8,18.1,16.3v17.5
		c0,3.5,1,4.5,2.5,4.5c1.5,0,3-1.6,3.4-8.9l1.3,0.1c-0.4,10.3-3.6,13.3-11,13.3c-7,0-10.9-2.2-11.9-6.4c-1.4,4.1-3.9,6.4-9.9,6.4
		c-6,0-12.7-1.8-12.7-10.4c0-8.7,7.5-10.7,19.8-10.7H406.2z M406.2,417.2v-8h-0.6c-3.6,0-5.3,2.6-5.3,7.8v1.4c0,6.2,0.6,7.1,2.2,7.1
		C404.1,425.4,406.2,422.7,406.2,417.2"/>
	<path class="st4" d="M433.3,388.6h-4.7V387h4.7v-11.1l16-4V387h11.2v1.5h-11.2v29c0,5.1,0.8,7.8,3.8,7.8c4.1,0,6.7-3.8,7.5-9.7
		l1.5,0.2c-0.8,6.7-3.6,12.9-14.1,12.9c-8.5,0-14.6-2.5-14.6-13.2V388.6z"/>
	<path class="st4" d="M483.7,387v39.4h4.8v1.5h-25.6v-1.5h4.7v-37.9h-5.1V387H483.7z M475.9,365.1c5.3,0,8.5,2.7,8.5,7.9
		c0,4.6-2.5,8.1-8.7,8.1c-7,0-8.6-4.4-8.6-8C467.1,368.9,469.5,365.1,475.9,365.1"/>
	<polygon class="st4" points="486.8,387 512.5,387 512.5,388.6 507.1,388.6 517.4,417.2 526.7,388.6 520.9,388.6 520.9,387 
		532.6,387 532.6,388.6 528.8,388.6 516,428 506.2,428 490.3,388.6 486.8,388.6 	"/>
	<path class="st4" d="M553.8,386.2c13.5,0,19.3,6.8,18.8,19.6h-24.3v3.4c0,10.2,1.8,17.1,10.2,17.1c6.4,0,10.7-4.1,12.6-10.7
		l1.6,0.3c-2,7.4-6.5,13.1-18.7,13.1c-15.3,0-22.2-8.8-22.2-21.3C531.7,392.7,541.9,386.2,553.8,386.2 M557.3,404.1v-4.2
		c0-9-0.7-12.1-4.2-12.1c-3,0-4.7,2.9-4.7,12.1v4.2H557.3z"/>
	<path class="st4" d="M576.8,413.5h1c3.2,10.5,8.4,13.5,15.5,13.5c6.4,0,8.8-2.3,8.8-5.6c0-3.9-4.2-4.7-10.8-6.5
		c-6.9-1.9-14.6-4.6-14.6-14.1c0-8.8,6-14.6,15.2-14.6c3.8,0,6.4,0.9,8.7,2c1,0.4,1.4,0.7,2.4,0.7c1.3,0,1.9-0.7,3-2.8h0.9v13.2h-1
		c-3.1-7.9-7.5-11.2-13.6-11.2c-5.7,0-8,2.3-8,5c0,4,5.2,4.9,10.8,6.5c6.8,1.8,14.4,4.6,14.4,14.7c0,9.8-6.4,14.7-16.1,14.7
		c-4.1,0-7.1-0.9-10.3-2.5c-0.5-0.3-1.3-0.7-1.6-0.7c-1.1,0-2.3,0.8-3.7,3.2h-1V413.5z"/>
</g>
<g>
	<defs>
		<path id="SVGID_4_" d="M453.4,300.3c1.5-2.2,21.7-24,24.8-8.5c0.7,3.6-12.6,12.5-15.1,14.1c-4.7,2.8-9.6,4.8-14.7,6.1
			C449.4,307.8,451.1,303.8,453.4,300.3 M431.5,296.5c-14.4,26,4,47.4,29.4,52c28.4,5.1,56.7-8.8,75.1-29.7
			c1.1-1.3-16.5-10.8-20.6-6.2c-13.8,15.6-68.7,47.6-68.2,9.4c0.6,0.1,1.2,0.2,1.6,0.2c14.8-0.4,28.6-3.9,40.3-13.5
			c8.8-7.2,15.5-16.6,4.6-25c-6.9-5.3-15.5-7.7-24.2-7.7C454.2,276,438.7,283.5,431.5,296.5 M323.6,280c-3.4,20-7.4,39.8-12.1,59.6
			c-1.7,7.3,19.5,10,21.4,1.9c4.7-19.7,8.7-39.6,12.1-59.6c0.7-4.3-5.8-6.9-11.8-6.9C328.6,274.9,324.2,276.5,323.6,280 M556,267.2
			c-15,8.5-7,16.5,3.5,23.7c14.7,10.1,55.4,24.7,41.4,48.2c-5.3,9-16.9,13.7-26.7,15.2c-10.5,1.5-31-2.1-12-11.8
			c2.4-1.2-12.5-14.4-16.8-12.2c-20.7,10.5-0.8,23.5,12.1,29.9c17.2,8.5,39,10,54.9-2.4c20.9-16.4,1.7-37.3-13.6-48.6
			c-4.8-3.5-9.8-6.7-14.9-9.7c-3.5-2.1-15.9-6.8-17.4-10c-6.7-14.2,28.7-15.3,35.2-12.4c12.3,5.4-2.7-7.5-6.9-9.4
			c-6.9-3.1-14.1-5-21.2-5C567.6,262.6,561.7,264,556,267.2 M267.9,250.9c-27.5,6.8-59.5,29.5-71.4,55.9
			c-10.1,22.6,6.2,34.7,25.6,40.4c27.4,8.1,56-2.3,77-20.5c-0.6,0.5-4.1-1.7-8.2-3.9c-4.7-2.6-10.1-5.1-12.1-3.4
			c-14,12.1-30.9,21-49.7,22.6c-20.5,1.7-17-20.7-9.4-33.4c8-13.3,21-25.2,33.6-34.1c7.9-5.6,16.4-10.3,25.5-13.6
			c3.7-1.3,7.4-2.4,11.2-3.2c2.7,0,4.4-0.2,5.2-0.6c5.8,1.9,14.9,2,15.6,3.9c-3.4-9.2-16.1-11.9-27.5-11.9
			C277.3,249.2,271.7,249.9,267.9,250.9 M393.8,241.3c-11.3,14.9-20.7,31-27.3,48.5c-4.1,11-14.3,34-8.9,45.2
			c10.5,22.1,49.3-10.7,56.5-21.3c6-8.7-12.7,0.4-15.5,4.5c-11.1,13-19.1,13.6-23.7,1.8c0.2-3.5,0.6-6.9,1.3-10.3
			c1.1-6.2,2.6-12.3,4.5-18.3c1.8,0.2,3.6,0.1,5.2-0.2c17.5-3,33.9-9.6,48.6-19.4c11.3-7.5-3.9-20.5-13.1-14.4
			c-10.6,7-21.7,12-33.6,15.2c5.7-12.8,12.9-24.7,21.4-35.9c1.9-2.5,1.5-3.4,0-3.4C405.7,233.4,395.9,238.6,393.8,241.3
			 M341.6,215.9c-1,12.5-3.4,24.7-7.3,36.7c-1.8,5.6,14.1,19.1,15.9,13.6c3.9-12,6.3-24.2,7.3-36.7c0.3-4.4-4.1-8.9-7.1-11.5
			c-0.8-0.6-4.9-3.6-7.2-3.6C342.3,214.3,341.6,214.7,341.6,215.9 M540.4,214.8c-12.8,16.9-27.8,31.4-45,43.8
			c-7.3,5.2,9.3,18.5,15.6,14c18-12.9,33.9-28.3,47.4-45.9c3.8-5-6.6-13.8-13.6-13.8C543,212.9,541.5,213.5,540.4,214.8"/>
	</defs>
	<clipPath id="SVGID_5_">
		<use xlink:href="#SVGID_4_"  style="overflow:visible;"/>
	</clipPath>
	
		<linearGradient id="SVGID_6_" gradientUnits="userSpaceOnUse" x1="30.5899" y1="746.2701" x2="34.8946" y2="746.2701" gradientTransform="matrix(99.4471 0 0 -99.4471 -2848.6704 74505.9453)">
		<stop  offset="0" style="stop-color:#45328F"/>
		<stop  offset="1" style="stop-color:#E50213"/>
	</linearGradient>
	<rect x="186.4" y="212.9" class="st5" width="446.8" height="157.4"/>
</g>
<g>
	<defs>
		<path id="SVGID_7_" d="M263,217c-1.5,0-2.3,0.8-2.3,2.3V241c0,1.5,0.8,2.3,2.3,2.3h15.2c1.5,0,2.3-0.8,2.3-2.3v-2.3
			c0-1.5-0.8-2.3-2.3-2.3h-9.5v-17.3c0-1.5-0.8-2.3-2.3-2.3H263z M285.7,217c-1.5,0-2.3,0.8-2.3,2.3V241c0,1.5,0.8,2.3,2.3,2.3h14.2
			c1.5,0,2.3-0.8,2.3-2.3v-2.3c0-1.5-0.8-2.3-2.3-2.3h-8.6v-3.3h7.2c1.5,0,2.3-0.8,2.3-2.3v-1.5c0-1.5-0.8-2.3-2.3-2.3h-7.2v-3.4
			h8.6c1.5,0,2.3-0.8,2.3-2.3v-2.3c0-1.5-0.8-2.3-2.3-2.3H285.7z M305.9,224.9c0.1,5.6,6.5,7.3,7.7,7.7l3,1.1
			c1.9,0.6,2.2,1.4,2.2,2.1c0,1.3-1.3,1.9-3.1,1.9c-1.8,0-3.1-0.6-3.9-1.8c-0.8-1.2-1.5-1.8-2.8-1.5L307,235
			c-1.4,0.3-2.2,1.3-1.7,2.7c1.5,3.9,5.3,6,10.4,6c5.7,0,10.7-2.6,10.7-8.2c-0.1-3.7-2-6.3-7.8-8.3l-2.9-1c-1.6-0.6-2.1-1.2-2.1-2
			c0-1.1,1.2-1.7,2.5-1.7c1,0,1.7,0.3,2.2,0.9c0.9,1.1,1.7,1.6,2.9,1.2l2-0.6c1.5-0.4,2.1-1.5,1.3-2.9c-1.7-3-4.5-4.6-8.6-4.6
			C310.2,216.6,305.9,219.8,305.9,224.9"/>
	</defs>
	<clipPath id="SVGID_8_">
		<use xlink:href="#SVGID_7_"  style="overflow:visible;"/>
	</clipPath>
	
		<linearGradient id="SVGID_9_" gradientUnits="userSpaceOnUse" x1="37.2259" y1="750.8717" x2="41.5307" y2="750.8717" gradientTransform="matrix(15.2748 0 0 -15.2748 -307.8549 11699.5703)">
		<stop  offset="0" style="stop-color:#45328F"/>
		<stop  offset="1" style="stop-color:#E50213"/>
	</linearGradient>
	<rect x="260.8" y="216.6" class="st6" width="65.8" height="27.1"/>
</g>
</svg>
